<svg width="3854" height="2994" viewBox="0 0 3854 2994" fill="none" xmlns="http://www.w3.org/2000/svg">
<path d="M780.563 2256.79C742.919 2192.26 667.633 2009.42 664.944 1909.94C616.546 1909.94 447.151 2068.58 379.931 2256.79C326.155 2407.37 100.296 2568.69 0.810059 2630.54C663.331 2908.02 985.808 2672.66 1057.51 2520.3L834.339 2329.39C817.13 2387.47 595.932 2511.33 487.483 2566C545.561 2460.6 707.069 2315.95 780.563 2256.79Z" fill="black"/>
<path d="M3087.55 2256.79C3133.26 2173.44 3200.48 2009.42 3203.17 1909.94C3251.57 1909.94 3420.97 2068.58 3488.19 2256.79C3541.96 2407.37 3754.38 2568.69 3853.86 2630.54C3191.34 2908.02 2882.31 2672.66 2810.61 2520.3L3033.78 2329.39C3066.04 2361.66 3272.19 2511.33 3380.63 2566C3322.56 2460.6 3161.05 2315.95 3087.55 2256.79Z" fill="black"/>
<path d="M1433.94 2426.19L1377.48 2531.05L1522.67 2455.76C1659.8 2415.43 1683.1 2519.4 1670.56 2566L1576.45 2668.18L1670.56 2611.71C1791.01 2557.94 1794.24 2660.11 1772.73 2713.89L1729.71 2770.35C1839.95 2711.2 1857.88 2790.07 1831.88 2829.51C1793.17 2900.49 1627.54 2966.64 1549.56 2990.84C1476.96 3006.97 1420.5 2958.57 1433.94 2910.17C1347.9 2918.78 1330.87 2825.03 1334.46 2786.49C1203.24 2782.18 1211.67 2670.87 1226.9 2619.78C1121.5 2628.38 1092.46 2493.41 1100.53 2455.76C1108.6 2418.12 1165.06 2385.85 1191.95 2367.03C1218.84 2348.21 1304.88 2302.5 1304.88 2302.5C1425.87 2256.79 1460.83 2380.48 1433.94 2426.19Z" fill="black"/>
<path d="M815.517 549.404C896.181 576.292 1157.89 681.155 1294.12 724.176C1457.52 534.884 1803.17 163.112 1955.57 0.887878C2196.49 207.388 2792.68 931.213 3060.67 1267.31C2458.38 697.288 1787.97 685.636 1528.05 751.064C923.607 867.22 727.683 1457.32 705.276 1737.85C513.834 1740.01 256.247 1844.51 151.383 1896.49C194.404 1733.01 602.206 934.798 815.517 549.404Z" fill="#B6B6B6"/>
<path d="M888.114 1447.46C1268.85 655.88 1934.06 753.753 2237.89 863.993C1667.87 748.375 1345.21 1044.14 1269.92 1175.89C1116.66 1506.62 1321.91 1684.97 1495.78 1716.34C1643.67 1614.17 1829.19 1608.79 1934.06 1632.99C2005.32 1649.44 2054.16 1724.41 2068.5 1770.12C2008.45 1807.76 1844.25 1901.33 1667.87 1974.47C1491.48 2047.6 1508.33 2159.1 1538.8 2205.71C1654.42 2361.66 2033.54 2205.71 2111.52 2141.17C2173.9 2089.55 2245.96 2092.78 2275.54 2100.84L2614.32 2547.18C2644.44 2742.93 2487.06 2718.37 2404.6 2681.62C2376.63 2830.05 2256.71 2788.28 2200.25 2748.84C2170.13 2910.17 2044.3 2864.46 1985.15 2821.44C1931.37 2912.86 1810.37 2912.86 1815.75 2910.17C1857.95 2889.07 1882.97 2837.57 1888.35 2821.44C1912.01 2726.8 1850.71 2711.2 1815.75 2705.82C1899.1 2598.27 1783.49 2548.08 1718.95 2547.18C1742.62 2504.16 1713.58 2439.63 1689.38 2415.43C1599.03 2348.75 1508.33 2387.65 1474.27 2415.43C1514.6 2340.15 1468.9 2246.04 1390.92 2205.71C1328.54 2173.44 1210.77 2256.79 1159.68 2302.5C735.928 2102.46 802.073 1649.12 888.114 1447.46Z" fill="#B6B6B6"/>
<path d="M1627.53 1447.46C1982.46 1603.41 2336.48 1459.11 2342.76 1382.93C2342.76 1358.73 2272.31 1291.52 2213.69 1261.94C2111.52 1210.36 1989.95 1182.21 1934.06 1183.96C2038.92 1170.52 2143.79 1183.06 2162.61 1189.34C2678.86 1361.42 2493.83 1447.46 2342.76 1525.44C2191.68 1603.41 1781.07 1626.8 1528.05 1525.44C1333.41 1447.46 1369.41 1296.89 1380.17 1253.87C1649.05 734.93 2364.27 928.525 2635.84 1065.65C3491.95 1581.9 3005.1 2262.17 2660.03 2539.12C2469.13 2275.61 2310.49 2052.44 2280.91 2041.69C2251.34 2030.93 2216.38 1993.29 1985.15 2133.11C1600.65 2353.59 1458.14 2098.15 1608.71 2049.75C1729.17 2011.04 1994.11 1848.99 2111.52 1772.81C2335.23 1656.65 2498.71 1769.22 2552.48 1840.03C2877.29 1687.3 2743.39 1405.34 2635.84 1283.45C2415.35 1001.12 1904.48 1038.77 1778.11 1065.65C1560.31 1143.63 1471.58 1342.6 1627.53 1447.46Z" fill="black"/>
<path d="M2200.25 1318.4C1918.47 1365.72 1807.69 1248.49 1891.04 1192.03C1748.53 1192.03 1668.46 1279.65 1670.56 1299.58C1686.69 1452.84 2082.84 1404.44 2200.25 1318.4Z" fill="#B6B6B6"/>
</svg>
