<svg width="3854" height="2994" viewBox="0 0 3854 2994" fill="none" xmlns="http://www.w3.org/2000/svg">
<path d="M780.036 2256.67C742.393 2192.14 667.107 2009.3 664.418 1909.82C616.02 1909.82 446.625 2068.46 379.405 2256.67C325.629 2407.25 99.7696 2568.57 0.283936 2630.42C662.805 2907.9 985.282 2672.54 1056.98 2520.18L833.812 2329.27C816.604 2387.35 595.405 2511.21 486.957 2565.89C545.035 2460.48 706.543 2315.83 780.036 2256.67Z" fill="black"/>
<path d="M3087.03 2256.67C3132.74 2173.32 3199.96 2009.3 3202.65 1909.82C3251.05 1909.82 3420.44 2068.46 3487.66 2256.67C3541.44 2407.25 3753.85 2568.57 3853.34 2630.42C3190.82 2907.9 2881.78 2672.54 2810.08 2520.18L3033.25 2329.27C3065.52 2361.54 3271.66 2511.21 3380.11 2565.89C3322.03 2460.48 3160.52 2315.83 3087.03 2256.67Z" fill="black"/>
<path d="M1433.42 2426.07L1376.95 2530.93L1522.15 2455.64C1659.27 2415.31 1682.58 2519.28 1670.03 2565.89L1575.92 2668.06L1670.03 2611.6C1790.49 2557.82 1793.71 2659.99 1772.2 2713.77L1729.18 2770.23C1839.42 2711.08 1857.35 2789.95 1831.36 2829.39C1792.64 2900.37 1627.01 2966.52 1549.03 2990.72C1476.44 3006.85 1419.97 2958.45 1433.42 2910.05C1347.37 2918.66 1330.34 2824.91 1333.93 2786.37C1202.72 2782.07 1211.14 2670.75 1226.38 2619.66C1120.98 2628.27 1091.94 2493.29 1100 2455.64C1108.07 2418 1164.53 2385.74 1191.42 2366.91C1218.31 2348.09 1304.35 2302.38 1304.35 2302.38C1425.35 2256.67 1460.3 2380.36 1433.42 2426.07Z" fill="black"/>
<path d="M814.991 549.284C895.655 576.172 1157.37 681.035 1293.6 724.056C1456.99 534.765 1802.64 162.993 1955.04 0.768555C2195.96 207.269 2792.16 931.094 3060.14 1267.19C2457.85 697.168 1787.44 685.517 1527.52 750.944C923.081 867.101 727.157 1457.2 704.75 1737.73C513.307 1739.89 255.72 1844.39 150.857 1896.37C193.878 1732.89 601.679 934.679 814.991 549.284Z" fill="black"/>
<path d="M887.588 1447.34C1268.32 655.761 1933.53 753.633 2237.37 863.874C1667.34 748.256 1344.68 1044.02 1269.4 1175.77C1116.14 1506.5 1321.38 1684.85 1495.26 1716.22C1643.14 1614.05 1828.67 1608.67 1933.53 1632.87C2004.79 1649.32 2053.63 1724.29 2067.97 1770C2007.92 1807.64 1843.73 1901.21 1667.34 1974.35C1490.96 2047.48 1507.81 2158.98 1538.28 2205.59C1653.9 2361.54 2033.02 2205.59 2110.99 2141.05C2173.37 2089.43 2245.43 2092.66 2275.01 2100.72L2613.8 2547.06C2643.91 2742.81 2486.53 2718.25 2404.07 2681.5C2376.11 2829.93 2256.19 2788.16 2199.72 2748.72C2169.61 2910.05 2043.77 2864.34 1984.62 2821.32C1930.84 2912.74 1809.85 2912.74 1815.23 2910.05C1857.42 2888.95 1882.45 2837.45 1887.82 2821.32C1911.48 2726.68 1850.18 2711.08 1815.23 2705.7C1898.58 2598.15 1782.96 2547.96 1718.43 2547.06C1742.09 2504.04 1713.05 2439.51 1688.85 2415.31C1598.51 2348.63 1507.81 2387.53 1473.75 2415.31C1514.08 2340.03 1468.37 2245.92 1390.39 2205.59C1328.01 2173.32 1210.24 2256.67 1159.16 2302.38C735.402 2102.34 801.547 1649 887.588 1447.34Z" fill="black"/>
<path d="M1627.01 1447.34C1981.93 1603.3 2335.96 1459 2342.23 1382.81C2342.23 1358.61 2271.78 1291.4 2213.17 1261.82C2110.99 1210.24 1989.42 1182.1 1933.53 1183.84C2038.4 1170.4 2143.26 1182.95 2162.08 1189.22C2678.33 1361.3 2493.31 1447.34 2342.23 1525.32C2191.15 1603.3 1780.55 1626.69 1527.52 1525.32C1332.88 1447.34 1368.88 1296.77 1379.64 1253.75C1648.52 734.811 2363.74 928.406 2635.31 1065.53C3491.42 1581.78 3004.57 2262.05 2659.51 2539C2468.6 2275.5 2309.96 2052.32 2280.39 2041.57C2250.81 2030.81 2215.86 1993.17 1984.62 2132.99C1600.12 2353.47 1457.61 2098.03 1608.19 2049.64C1728.65 2010.92 1993.58 1848.87 2110.99 1772.69C2334.7 1656.53 2498.18 1769.1 2551.96 1839.91C2876.76 1687.19 2742.86 1405.22 2635.31 1283.33C2414.83 1001 1903.95 1038.65 1777.58 1065.53C1559.79 1143.51 1471.06 1342.48 1627.01 1447.34Z" fill="black"/>
<path d="M2199.73 1318.28C1917.94 1365.6 1807.16 1248.37 1890.52 1191.91C1748.01 1191.91 1667.94 1279.53 1670.03 1299.46C1686.16 1452.72 2082.32 1404.32 2199.73 1318.28Z" fill="black"/>
</svg>
