<svg width="4623" height="3591" viewBox="0 0 4623 3591" fill="none" xmlns="http://www.w3.org/2000/svg">
<path d="M935.617 2706.23C890.459 2628.82 800.144 2409.48 796.918 2290.13C738.859 2290.13 535.649 2480.44 455.011 2706.23C390.5 2886.86 119.555 3080.39 0.209473 3154.58C794.983 3487.46 1181.83 3205.11 1267.85 3022.33L1000.13 2793.32C979.484 2862.99 714.129 3011.58 584.032 3077.17C653.704 2950.73 847.452 2777.19 935.617 2706.23Z" fill="black"/>
<path d="M3703.13 2706.23C3757.97 2606.24 3838.6 2409.48 3841.83 2290.13C3899.89 2290.13 4103.1 2480.44 4183.74 2706.23C4248.25 2886.86 4503.07 3080.39 4622.41 3154.58C3827.64 3487.46 3456.91 3205.11 3370.9 3022.33L3638.62 2793.32C3677.33 2832.03 3924.62 3011.58 4054.71 3077.17C3985.04 2950.73 3791.3 2777.19 3703.13 2706.23Z" fill="black"/>
<path d="M1719.42 2909.44L1651.69 3035.23L1825.87 2944.92C1990.37 2896.54 2018.32 3021.26 2003.27 3077.17L1890.38 3199.74L2003.27 3132C2147.77 3067.49 2151.64 3190.06 2125.84 3254.57L2074.23 3322.31C2206.48 3251.35 2227.98 3345.96 2196.8 3393.27C2150.35 3478.42 1951.66 3557.77 1858.12 3586.8C1771.03 3606.16 1703.29 3548.1 1719.42 3490.04C1616.2 3500.36 1595.78 3387.89 1600.08 3341.66C1442.67 3336.5 1452.78 3202.96 1471.06 3141.68C1344.61 3152 1309.78 2990.08 1319.46 2944.92C1329.13 2899.76 1396.87 2861.05 1429.12 2838.48C1461.38 2815.9 1564.6 2761.06 1564.6 2761.06C1709.75 2706.23 1751.68 2854.6 1719.42 2909.44Z" fill="black"/>
<path d="M977.549 658.01C1074.32 690.266 1388.27 816.062 1551.7 867.671C1747.7 640.593 2162.35 194.608 2345.18 0C2634.19 247.722 3349.4 1116.04 3670.88 1519.23C2948.35 835.415 2144.12 821.438 1832.32 899.926C1107.22 1039.27 872.181 1747.17 845.302 2083.7C615.643 2086.28 306.636 2211.65 180.84 2274.01C232.449 2077.89 721.656 1120.34 977.549 658.01Z" fill="black"/>
<path d="M1064.64 1735.34C1521.37 785.742 2319.37 903.152 2683.86 1035.4C2000.04 890.249 1600.39 1241.83 1522.66 1409.56C1338.81 1806.3 1585.02 2020.26 1793.61 2057.9C1971.01 1935.32 2193.58 1928.87 2319.37 1957.9C2404.86 1977.63 2463.45 2067.57 2480.65 2122.41C2408.61 2167.56 2211.64 2279.81 2000.04 2367.55C1788.45 2455.28 1808.66 2589.03 1845.22 2644.94C1983.92 2832.03 2438.72 2644.94 2532.26 2567.53C2607.09 2505.6 2693.54 2509.47 2729.02 2519.15L3135.44 3054.59C3171.56 3289.41 2982.76 3259.95 2883.84 3215.87C2850.3 3393.92 2706.44 3343.81 2638.7 3296.5C2602.58 3490.04 2451.62 3435.2 2380.66 3383.59C2316.15 3493.26 2171 3493.26 2177.45 3490.04C2228.07 3464.73 2258.09 3402.95 2264.54 3383.59C2292.92 3270.05 2219.38 3251.35 2177.45 3244.9C2277.44 3115.87 2138.74 3055.66 2061.33 3054.59C2089.71 3002.98 2054.88 2925.57 2025.85 2896.54C1917.47 2816.54 1808.66 2863.21 1767.81 2896.54C1816.19 2806.22 1761.35 2693.33 1667.81 2644.94C1592.98 2606.24 1451.7 2706.23 1390.42 2761.06C882.072 2521.08 961.42 1977.26 1064.64 1735.34Z" fill="white"/>
<path d="M1951.66 1735.34C2377.43 1922.42 2802.13 1749.32 2809.66 1657.93C2809.66 1628.9 2725.14 1548.27 2654.83 1512.78C2532.26 1450.91 2386.42 1417.14 2319.37 1419.24C2445.17 1403.11 2570.97 1418.16 2593.54 1425.69C3212.85 1632.12 2990.89 1735.34 2809.66 1828.88C2628.42 1922.42 2135.85 1950.48 1832.32 1828.88C1598.82 1735.34 1642.01 1554.71 1654.91 1503.1C1977.47 880.572 2835.46 1112.81 3161.24 1277.31C4188.25 1896.62 3604.21 2712.68 3190.27 3044.91C2961.26 2728.81 2770.95 2461.09 2735.47 2448.19C2699.99 2435.28 2658.06 2390.13 2380.66 2557.85C1919.41 2822.35 1748.45 2515.92 1929.08 2457.86C2073.59 2411.41 2391.41 2217.02 2532.26 2125.63C2800.62 1986.29 2996.74 2121.33 3061.25 2206.27C3450.89 2023.06 3290.26 1684.81 3161.24 1538.58C2896.75 1199.9 2283.89 1245.06 2132.29 1277.31C1871.02 1370.86 1764.58 1609.55 1951.66 1735.34Z" fill="black"/>
<path d="M2638.71 1580.52C2300.67 1637.29 2167.78 1496.65 2267.77 1428.92C2096.81 1428.92 2000.76 1534.03 2003.27 1557.94C2022.62 1741.79 2497.86 1683.73 2638.71 1580.52Z" fill="white"/>
</svg>
