<svg width="4367" height="3501" viewBox="0 0 4367 3501" fill="none" xmlns="http://www.w3.org/2000/svg">
<rect width="4366.61" height="3500.82" fill="#FF0000"/>
<path d="M1013.68 2551.67C976.035 2487.14 900.749 2304.3 898.06 2204.82C849.661 2204.82 680.267 2363.46 613.047 2551.67C559.271 2702.25 333.411 2863.57 233.926 2925.42C896.447 3202.9 1218.92 2967.54 1290.62 2815.18L1067.45 2624.27C1050.25 2682.35 829.047 2806.21 720.599 2860.89C778.677 2755.48 940.184 2610.83 1013.68 2551.67Z" fill="black"/>
<path d="M3320.67 2551.67C3366.38 2468.32 3433.6 2304.3 3436.29 2204.82C3484.69 2204.82 3654.08 2363.46 3721.3 2551.67C3775.08 2702.25 3987.49 2863.57 4086.98 2925.42C3424.46 3202.9 3115.43 2967.54 3043.72 2815.18L3266.89 2624.27C3299.16 2656.54 3505.3 2806.21 3613.75 2860.89C3555.67 2755.48 3394.16 2610.83 3320.67 2551.67Z" fill="black"/>
<path d="M1667.06 2721.07L1610.59 2825.93L1755.79 2750.64C1892.92 2710.31 1916.22 2814.28 1903.67 2860.89L1809.56 2963.06L1903.67 2906.59C2024.13 2852.82 2027.36 2954.99 2005.85 3008.77L1962.83 3065.23C2073.07 3006.08 2090.99 3084.95 2065 3124.39C2026.28 3195.37 1860.65 3261.52 1782.68 3285.72C1710.08 3301.85 1653.61 3253.45 1667.06 3205.05C1581.02 3213.66 1563.99 3119.91 1567.57 3081.37C1436.36 3077.07 1444.78 2965.75 1460.02 2914.66C1354.62 2923.27 1325.58 2788.29 1333.65 2750.64C1341.71 2713 1398.18 2680.74 1425.06 2661.91C1451.95 2643.09 1537.99 2597.38 1537.99 2597.38C1658.99 2551.67 1693.94 2675.36 1667.06 2721.07Z" fill="black"/>
<path d="M1048.63 844.284C1129.3 871.172 1391.01 976.035 1527.24 1019.06C1690.63 829.765 2036.28 457.993 2188.69 295.769C2429.6 502.269 3025.8 1226.09 3293.78 1562.19C2691.49 992.168 2021.08 980.517 1761.17 1045.94C1156.72 1162.1 960.799 1752.2 938.392 2032.73C746.95 2034.89 489.362 2139.39 384.499 2191.37C427.52 2027.89 835.321 1229.68 1048.63 844.284Z" fill="black"/>
<path d="M1121.23 1742.34C1501.96 950.76 2167.17 1048.63 2471.01 1158.87C1900.98 1037.88 1567.83 1330.96 1503.04 1470.77C1349.78 1801.5 1555.02 1979.85 1728.9 2011.22C1876.78 1909.05 2062.31 1903.67 2167.17 1927.87C2238.44 1944.32 2287.27 2019.29 2301.61 2065C2241.56 2102.64 2077.37 2196.21 1900.98 2269.35C1724.6 2342.48 1741.45 2453.98 1771.92 2500.59C1887.54 2656.54 2266.66 2500.59 2344.64 2436.05C2407.02 2384.43 2479.08 2387.66 2508.65 2395.72L2847.44 2842.06C2877.56 3037.81 2720.17 3013.25 2637.71 2976.5C2609.75 3124.93 2489.83 3083.16 2433.37 3043.72C2403.25 3205.05 2277.42 3159.34 2218.26 3116.32C2164.49 3207.74 2043.49 3207.74 2048.87 3205.05C2091.06 3183.95 2116.09 3132.45 2121.46 3116.32C2145.13 3021.68 2083.82 3006.08 2048.87 3000.7C2132.22 2893.15 2016.6 2842.96 1952.07 2842.06C1975.73 2799.04 1946.69 2734.51 1922.49 2710.31C1832.15 2643.63 1741.45 2682.53 1707.39 2710.31C1747.72 2635.03 1702.01 2540.92 1624.04 2500.59C1561.66 2468.32 1443.89 2551.67 1392.8 2597.38C969.044 2397.34 1035.19 1944 1121.23 1742.34Z" fill="white"/>
<path d="M1860.65 1742.34C2215.57 1898.29 2569.6 1754 2575.87 1677.81C2575.87 1653.61 2505.42 1586.4 2446.81 1556.82C2344.64 1505.24 2223.06 1477.09 2167.18 1478.84C2272.04 1465.4 2376.9 1477.94 2395.72 1484.22C2911.97 1656.3 2726.95 1742.34 2575.87 1820.32C2424.8 1898.29 2014.19 1921.69 1761.17 1820.32C1566.53 1742.34 1602.53 1591.77 1613.28 1548.75C1882.16 1029.81 2597.38 1223.41 2868.95 1360.53C3725.07 1876.78 3238.21 2557.05 2893.15 2834C2702.25 2570.49 2543.61 2347.32 2514.03 2336.57C2484.45 2325.81 2449.5 2288.17 2218.26 2427.99C1833.76 2648.47 1691.26 2393.03 1841.83 2344.64C1962.29 2305.92 2227.22 2143.87 2344.64 2067.69C2568.34 1951.53 2731.82 2064.1 2785.6 2134.91C3110.41 1982.18 2976.5 1700.22 2868.95 1578.33C2648.47 1296 2137.6 1333.65 2011.22 1360.53C1793.43 1438.51 1704.7 1637.48 1860.65 1742.34Z" fill="black"/>
<path d="M2433.37 1613.28C2151.58 1660.6 2040.8 1543.37 2124.16 1486.91C1981.65 1486.91 1901.58 1574.53 1903.67 1594.46C1919.8 1747.72 2315.96 1699.32 2433.37 1613.28Z" fill="white"/>
</svg>
