<svg id="Layer_1" data-name="Layer 1" xmlns="http://www.w3.org/2000/svg" width="345.54" height="23.87" viewBox="0 0 345.54 23.87"><path d="M324.74,252.35c-6.32,0-12.27-3.15-16.75-8.88a8.73,8.73,0,0,0-6.84-3.44,9.06,9.06,0,0,0-7.15,3.69c-4.27,5.56-10,8.51-16.47,8.54h-.08a19.76,19.76,0,0,1-16.27-8.17,9,9,0,0,0-5.39-3.78,11.74,11.74,0,0,0-2.29-.24,8.36,8.36,0,0,0-6.84,3.7c-4.28,5.55-10,8.48-16.51,8.48a20.13,20.13,0,0,1-16.41-8.31,9.31,9.31,0,0,0-7.26-3.93,8.41,8.41,0,0,0-4.66,1.47,13.53,13.53,0,0,0-2.88,2.84,20.65,20.65,0,0,1-16.16,8,20.36,20.36,0,0,1-16.15-8.08c-2.1-2.71-4.74-4.2-7.45-4.2s-5.35,1.48-7.46,4.17a20.23,20.23,0,0,1-32,.55c-2.63-3.15-5.25-4.75-7.8-4.75s-5,1.41-7.73,4.19L101.46,247l-8.57-5.49,2.29-4a.53.53,0,0,0,.06-.1,6.73,6.73,0,0,1,.74-1.16,20,20,0,0,1,15.75-7.72,20.69,20.69,0,0,1,16.43,8.24,9.53,9.53,0,0,0,7.31,4.07,7.81,7.81,0,0,0,3.8-1,15.64,15.64,0,0,0,4.09-3.75,20.68,20.68,0,0,1,15.82-7.53,19.88,19.88,0,0,1,11.55,3.71,23.52,23.52,0,0,1,5,4.86,9.14,9.14,0,0,0,7.15,3.68,9,9,0,0,0,7-3.59c4.42-5.62,10.33-8.71,16.66-8.71s12.17,3.08,16.53,8.66a8.68,8.68,0,0,0,14.22-.1,21,21,0,0,1,16.63-8.52A20.07,20.07,0,0,1,267.53,234a25.34,25.34,0,0,1,2.6,2.89,9.46,9.46,0,0,0,7.28,4c2.74,0,5.38-1.47,7.44-4.13A19.93,19.93,0,0,1,301,228.56h.38A20.3,20.3,0,0,1,317.53,237a9.19,9.19,0,0,0,7.13,3.87,8.31,8.31,0,0,0,4.24-1.21,12.13,12.13,0,0,0,3.18-2.9,20.91,20.91,0,0,1,16.32-8.19,20.66,20.66,0,0,1,16.33,8.33,8.71,8.71,0,0,0,14.5.14c4.36-5.49,10.21-8.51,16.46-8.51s12.23,3.09,16.59,8.71a8.93,8.93,0,0,0,7,3.55,9.43,9.43,0,0,0,7.34-3.81l2.86-3.57,8.91,6.34-2.59,3.91a19.22,19.22,0,0,1-16.25,8.66A20.84,20.84,0,0,1,403,244a9.35,9.35,0,0,0-7.3-4,8.25,8.25,0,0,0-4.31,1.26,11.38,11.38,0,0,0-2.84,2.6c-4.35,5.45-10.2,8.46-16.48,8.46s-12.27-3.09-16.61-8.69a8.7,8.7,0,0,0-14-.08c-4.46,5.67-10.38,8.79-16.66,8.79Z" transform="translate(-92.89 -228.48)" style="fill:#2d3279"/></svg>