<?xml version="1.0" standalone="no"?>
<!DOCTYPE svg PUBLIC "-//W3C//DTD SVG 20010904//EN"
 "http://www.w3.org/TR/2001/REC-SVG-20010904/DTD/svg10.dtd">
<svg version="1.0" xmlns="http://www.w3.org/2000/svg"
 width="1188.000000pt" height="1188.000000pt" viewBox="0 0 1188.000000 1188.000000"
 preserveAspectRatio="xMidYMid meet">
<metadata>
Created by potrace 1.14, written by Peter Selinger 2001-2017
</metadata>
<g transform="translate(0.000000,1188.000000) scale(0.100000,-0.100000)"
fill="#000000" stroke="none">
<path d="M0 5940 l0 -4760 5935 0 5935 0 0 4760 0 4760 -5935 0 -5935 0 0
-4760z m5810 1800 c252 -19 480 -60 700 -125 132 -39 175 -54 169 -60 -3 -2
-25 1 -49 6 -234 53 -676 74 -929 45 -263 -31 -486 -86 -704 -174 -413 -167
-766 -452 -901 -727 -151 -308 -191 -620 -111 -872 88 -277 330 -499 638 -583
l74 -20 78 47 c109 65 235 117 367 152 181 47 249 56 443 55 297 -1 397 -32
524 -162 56 -56 87 -98 115 -156 l39 -80 -22 -15 c-143 -98 -737 -405 -1001
-516 -174 -74 -260 -124 -336 -197 -85 -81 -126 -160 -132 -254 -15 -237 180
-384 507 -384 323 0 791 148 1070 338 167 114 279 151 409 137 l63 -7 76 -101
c95 -127 430 -568 658 -867 95 -124 177 -235 184 -248 21 -40 16 -208 -9 -274
-22 -59 -78 -120 -128 -139 -92 -35 -221 -30 -357 16 -38 13 -70 22 -70 22
-50 -191 -133 -276 -271 -277 -73 0 -150 21 -223 62 -29 16 -57 26 -61 21 -3
-4 -12 -28 -19 -53 -67 -233 -243 -298 -483 -177 l-86 44 -29 -38 c-39 -50
-106 -105 -166 -135 -53 -28 -184 -64 -228 -64 -25 0 -23 4 40 67 85 85 122
158 129 252 2 39 0 83 -7 104 -16 47 -79 103 -133 118 -77 20 -72 18 -56 37
46 51 75 147 63 208 -15 83 -141 172 -275 196 -56 9 -60 12 -53 32 4 11 8 53
8 92 0 62 -5 81 -38 148 -32 64 -47 82 -90 111 -148 96 -354 102 -506 14 -18
-11 -35 -18 -37 -17 -2 2 3 22 11 43 33 92 10 228 -56 335 -37 60 -127 142
-187 172 -119 57 -304 -6 -540 -184 -71 -54 -98 -69 -115 -64 -35 8 -231 129
-313 191 -162 124 -320 317 -412 500 -192 384 -220 889 -77 1385 45 155 74
230 143 360 358 680 790 1135 1337 1405 412 203 883 291 1365 255z m-65 -1116
c-85 -92 -27 -203 143 -274 107 -45 225 -64 402 -64 85 1 191 6 234 12 44 7
81 10 83 8 8 -8 -121 -74 -195 -100 -328 -117 -758 -149 -995 -76 -137 43
-237 135 -237 219 0 129 294 296 527 300 l62 1 -24 -26z"/>
</g>
</svg>
