<svg width="1049" height="815" viewBox="0 0 1049 815" fill="none" xmlns="http://www.w3.org/2000/svg">
<path d="M212.874 614.113C202.638 596.564 182.164 546.843 181.433 519.789C168.272 519.789 122.207 562.929 103.927 614.113C89.3031 655.059 27.883 698.931 0.828979 715.748C180.994 791.207 268.689 727.204 288.187 685.769L227.498 633.855C222.819 649.649 162.666 683.332 133.175 698.2C148.968 669.537 192.888 630.199 212.874 614.113Z" fill="black"/>
<path d="M840.236 614.113C852.667 591.446 870.946 546.843 871.678 519.789C884.839 519.789 930.904 562.929 949.184 614.113C963.808 655.059 1021.57 698.931 1048.63 715.748C868.46 791.207 784.422 727.204 764.924 685.769L825.612 633.855C834.387 642.629 890.445 683.332 919.936 698.2C904.142 669.537 860.222 630.199 840.236 614.113Z" fill="black"/>
<path d="M390.554 660.178L375.199 688.694L414.683 668.221C451.974 657.253 458.311 685.526 454.898 698.2L429.307 725.985L454.898 710.63C487.656 696.006 488.533 723.791 482.684 738.415L470.985 753.77C500.964 737.684 505.838 759.132 498.77 769.856C488.241 789.16 443.199 807.147 421.995 813.728C402.253 818.115 386.898 804.954 390.554 791.792C367.156 794.132 362.525 768.638 363.5 758.157C327.818 756.987 330.109 726.716 334.252 712.824C305.589 715.163 297.692 678.457 299.886 668.221C302.08 657.984 317.435 649.21 324.747 644.092C332.058 638.973 355.457 626.543 355.457 626.543C388.36 614.113 397.866 647.748 390.554 660.178Z" fill="black"/>
<path d="M222.38 149.806C244.315 157.118 315.485 185.635 352.532 197.334C396.964 145.858 490.961 44.7587 532.405 0.643494C597.919 56.799 760.049 253.636 832.924 345.034C669.137 190.022 486.827 186.853 416.145 204.646C251.774 236.233 198.494 396.705 192.401 472.993C140.34 473.578 70.292 501.997 41.7755 516.133C53.4746 471.677 164.372 254.611 222.38 149.806Z" fill="#B6B6B6"/>
<path d="M242.122 394.024C345.659 178.762 526.555 205.377 609.18 235.356C454.167 203.915 366.425 284.346 345.951 320.174C304.273 410.11 360.087 458.613 407.371 467.143C447.587 439.358 498.039 437.896 526.555 444.476C545.934 448.949 559.215 469.337 563.115 481.767C546.785 492.004 502.133 517.449 454.167 537.338C406.201 557.226 410.783 587.546 419.07 600.22C450.511 642.629 553.609 600.22 574.814 582.672C591.778 568.633 611.373 569.51 619.417 571.704L711.547 693.081C719.736 746.312 676.937 739.634 654.514 729.641C646.909 770.003 614.298 758.645 598.943 747.921C590.754 791.792 556.534 779.362 540.448 767.663C525.824 792.523 492.921 792.523 494.383 791.792C505.857 786.055 512.663 772.05 514.125 767.663C520.56 741.925 503.888 737.684 494.383 736.222C517.05 706.974 485.609 693.325 468.06 693.081C474.494 681.382 466.598 663.834 460.017 657.253C435.449 639.12 410.783 649.697 401.522 657.253C412.489 636.78 400.059 611.188 378.855 600.22C361.891 591.446 329.865 614.113 315.972 626.543C200.737 572.142 218.724 448.864 242.122 394.024Z" fill="#B6B6B6"/>
<path d="M443.199 394.024C539.717 436.433 635.99 397.193 637.696 376.476C637.696 369.895 618.538 351.618 602.599 343.572C574.814 329.547 541.753 321.893 526.555 322.368C555.072 318.712 583.588 322.124 588.706 323.83C729.095 370.626 678.78 394.024 637.696 415.229C596.612 436.433 484.953 442.794 416.145 415.229C363.216 394.024 373.005 353.078 375.93 341.378C449.049 200.258 643.546 252.904 717.396 290.195C950.207 430.584 817.813 615.575 723.977 690.888C672.062 619.231 628.922 558.542 620.879 555.617C612.836 552.693 603.33 542.456 540.448 580.478C435.888 640.436 397.134 570.973 438.081 557.811C470.839 547.282 542.885 503.215 574.814 482.498C635.649 450.911 680.105 481.523 694.729 500.778C783.057 459.247 746.644 382.569 717.396 349.422C657.438 272.647 518.512 282.883 484.146 290.195C424.919 311.4 400.79 365.508 443.199 394.024Z" fill="black"/>
<path d="M598.944 358.927C522.315 371.796 492.19 339.916 514.857 324.561C476.104 324.561 454.329 348.389 454.899 353.809C459.286 395.487 567.015 382.325 598.944 358.927Z" fill="#B6B6B6"/>
</svg>
