<svg width="1049" height="815" viewBox="0 0 1049 815" fill="none" xmlns="http://www.w3.org/2000/svg">
<path d="M212.749 614.123C202.512 596.574 182.039 546.853 181.307 519.799C168.146 519.799 122.081 562.939 103.801 614.123C89.1774 655.069 27.7573 698.941 0.703247 715.758C180.869 791.217 268.563 727.213 288.061 685.779L227.372 633.865C222.693 649.658 162.54 683.342 133.049 698.209C148.843 669.547 192.763 630.209 212.749 614.123Z" fill="black"/>
<path d="M840.111 614.123C852.541 591.456 870.821 546.853 871.552 519.799C884.713 519.799 930.778 562.939 949.058 614.123C963.682 655.069 1021.45 698.941 1048.5 715.758C868.335 791.217 784.296 727.213 764.798 685.779L825.487 633.865C834.261 642.639 890.319 683.342 919.81 698.209C904.017 669.547 860.096 630.209 840.111 614.123Z" fill="black"/>
<path d="M390.428 660.188L375.073 688.704L414.557 668.231C451.848 657.263 458.185 685.535 454.773 698.209L429.181 725.995L454.773 710.64C487.53 696.016 488.408 723.801 482.558 738.425L470.859 753.78C500.838 737.694 505.712 759.142 498.644 769.866C488.115 789.17 443.074 807.157 421.869 813.738C402.127 818.125 386.772 804.963 390.428 791.802C367.03 794.142 362.399 768.648 363.374 758.167C327.692 756.997 329.983 726.726 334.126 712.833C305.464 715.173 297.567 678.467 299.76 668.231C301.954 657.994 317.309 649.22 324.621 644.101C331.933 638.983 355.331 626.553 355.331 626.553C388.234 614.123 397.74 647.757 390.428 660.188Z" fill="black"/>
<path d="M222.254 149.816C244.19 157.128 315.359 185.645 352.406 197.344C396.839 145.868 490.835 44.7685 532.279 0.653259C597.794 56.8087 759.923 253.645 832.799 345.044C669.012 190.032 486.702 186.863 416.02 204.656C251.648 236.243 198.369 396.715 192.275 473.003C140.215 473.588 70.1664 502.007 41.6499 516.143C53.349 471.687 164.246 254.62 222.254 149.816Z" fill="black"/>
<path d="M241.996 394.034C345.533 178.771 526.43 205.387 609.054 235.366C454.042 203.924 366.299 284.355 345.825 320.184C304.147 410.12 359.962 458.623 407.245 467.153C447.461 439.368 497.913 437.905 526.43 444.486C545.809 448.958 559.089 469.347 562.989 481.777C546.659 492.014 502.008 517.459 454.042 537.347C406.075 557.236 410.658 587.556 418.944 600.23C450.386 642.639 553.484 600.23 574.688 582.681C591.652 568.642 611.248 569.52 619.291 571.713L711.421 693.091C719.61 746.322 676.811 739.644 654.388 729.651C646.784 770.012 614.172 758.655 598.817 747.93C590.628 791.802 556.408 779.372 540.322 767.673C525.698 792.533 492.795 792.533 494.257 791.802C505.732 786.064 512.537 772.06 513.999 767.673C520.434 741.935 503.763 737.694 494.257 736.231C516.924 706.984 485.483 693.335 467.934 693.091C474.369 681.392 466.472 663.844 459.891 657.263C435.323 639.129 410.658 649.707 401.396 657.263C412.364 636.789 399.933 611.198 378.729 600.23C361.765 591.456 329.739 614.123 315.847 626.553C200.611 572.152 218.598 448.873 241.996 394.034Z" fill="black"/>
<path d="M443.074 394.034C539.591 436.443 635.865 397.203 637.571 376.485C637.571 369.905 618.412 351.627 602.473 343.582C574.688 329.557 541.628 321.902 526.43 322.377C554.946 318.721 583.462 322.134 588.581 323.84C728.97 370.636 678.654 394.034 637.571 415.239C596.487 436.443 484.827 442.804 416.02 415.239C363.09 394.034 372.879 353.087 375.804 341.388C448.923 200.268 643.42 252.914 717.27 290.205C950.082 430.594 817.687 615.585 723.851 690.898C671.937 619.241 628.796 558.552 620.753 555.627C612.71 552.703 603.205 542.466 540.322 580.488C435.762 640.445 397.009 570.982 437.956 557.821C470.713 547.292 542.76 503.225 574.688 482.508C635.523 450.921 679.98 481.533 694.604 500.788C782.931 459.256 746.518 382.579 717.27 349.432C657.313 272.656 518.386 282.893 484.021 290.205C424.794 311.41 400.665 365.518 443.074 394.034Z" fill="black"/>
<path d="M598.818 358.937C522.19 371.806 492.065 339.926 514.732 324.571C475.978 324.571 454.203 348.398 454.774 353.818C459.16 395.496 566.89 382.335 598.818 358.937Z" fill="black"/>
</svg>
