<svg width="1049" height="815" viewBox="0 0 1049 815" fill="none" xmlns="http://www.w3.org/2000/svg">
<path d="M212.659 614.122C202.422 596.574 181.949 546.853 181.218 519.799C168.056 519.799 121.991 562.939 103.712 614.122C89.0878 655.069 27.6677 698.941 0.613647 715.758C180.779 791.217 268.473 727.213 287.972 685.779L227.283 633.865C222.603 649.658 162.451 683.342 132.959 698.209C148.753 669.547 192.673 630.209 212.659 614.122Z" fill="black"/>
<path d="M840.021 614.122C852.451 591.456 870.731 546.853 871.462 519.799C884.623 519.799 930.689 562.939 948.968 614.122C963.592 655.069 1021.36 698.941 1048.41 715.758C868.245 791.217 784.207 727.213 764.708 685.779L825.397 633.865C834.171 642.639 890.229 683.342 919.721 698.209C903.927 669.547 860.007 630.209 840.021 614.122Z" fill="black"/>
<path d="M390.338 660.187L374.983 688.704L414.468 668.231C451.758 657.263 458.095 685.535 454.683 698.209L429.091 725.995L454.683 710.64C487.44 696.016 488.318 723.801 482.468 738.425L470.769 753.78C500.748 737.694 505.623 759.142 498.555 769.866C488.025 789.169 442.984 807.157 421.779 813.738C402.037 818.125 386.682 804.963 390.338 791.802C366.94 794.142 362.309 768.647 363.284 758.167C327.602 756.997 329.893 726.726 334.037 712.833C305.374 715.173 297.477 678.467 299.671 668.231C301.864 657.994 317.219 649.22 324.531 644.101C331.843 638.983 355.241 626.553 355.241 626.553C388.145 614.122 397.65 647.757 390.338 660.187Z" fill="black"/>
<path d="M222.165 149.816C244.1 157.128 315.27 185.645 352.317 197.344C396.749 145.868 490.746 44.7685 532.19 0.653259C597.704 56.8087 759.834 253.645 832.709 345.044C668.922 190.032 486.612 186.863 415.93 204.656C251.558 236.243 198.279 396.715 192.186 473.003C140.125 473.588 70.0769 502.007 41.5604 516.143C53.2595 471.687 164.157 254.62 222.165 149.816Z" fill="black"/>
<path d="M241.907 394.034C345.443 178.771 526.34 205.387 608.964 235.366C453.952 202.462 363.356 282.162 345.736 320.184C304.058 410.12 359.872 458.623 407.156 467.153C447.371 439.368 497.823 437.905 526.34 444.486C545.719 448.958 559 469.347 562.899 481.777C546.569 492.014 501.918 517.459 453.952 537.347C405.986 557.236 410.568 587.556 418.855 600.23C450.296 642.639 553.394 600.23 574.598 582.681C591.562 568.642 611.158 569.52 619.201 571.713L711.331 693.091C719.521 746.322 676.721 739.644 654.298 729.651C646.694 770.012 614.083 758.655 598.728 747.93C590.538 791.802 556.319 779.372 540.232 767.673C525.609 792.533 492.705 792.533 494.167 791.802C505.642 786.064 512.447 772.06 513.91 767.673C520.344 741.935 503.673 737.694 494.167 736.231C516.834 706.984 485.393 693.335 467.845 693.091C474.279 681.392 466.382 663.844 459.801 657.263C435.233 639.129 410.568 649.707 401.306 657.263C412.274 636.789 399.844 611.198 378.639 600.23C361.676 591.456 329.649 614.123 315.757 626.553C200.521 572.152 218.508 448.873 241.907 394.034Z" fill="white"/>
<path d="M442.984 394.034C539.501 436.443 635.775 397.202 637.481 376.485C637.481 369.905 618.323 351.627 602.384 343.582C574.598 329.556 541.538 321.902 526.34 322.377C554.856 318.721 583.373 322.134 588.491 323.84C728.88 370.636 678.565 394.034 637.481 415.239C596.397 436.443 484.737 442.804 415.93 415.239C363 394.034 372.79 353.087 375.714 341.388C448.834 200.268 643.33 252.914 717.181 290.205C949.992 430.594 817.598 615.585 723.761 690.897C671.847 619.241 628.707 558.552 620.664 555.627C612.62 552.702 603.115 542.466 540.233 580.488C435.672 640.445 396.919 570.982 437.866 557.821C470.623 547.292 542.67 503.225 574.598 482.508C635.434 450.921 679.89 481.533 694.514 500.788C782.842 459.256 746.428 382.579 717.181 349.431C657.223 272.656 518.297 282.893 483.931 290.205C424.704 311.409 400.575 365.518 442.984 394.034Z" fill="black"/>
<path d="M598.729 358.937C522.1 371.806 491.975 339.926 514.642 324.571C475.889 324.571 454.113 348.398 454.684 353.819C459.07 395.496 566.8 382.335 598.729 358.937Z" fill="white"/>
</svg>
