<svg width="1188" height="953" viewBox="0 0 1188 953" fill="none" xmlns="http://www.w3.org/2000/svg">
<rect y="0.222229" width="1187.45" height="952.011" fill="#FF0000"/>
<path d="M275.659 694.122C265.422 676.574 244.949 626.853 244.218 599.799C231.056 599.799 184.991 642.939 166.712 694.122C152.088 735.069 90.6677 778.941 63.6136 795.758C243.779 871.217 331.473 807.213 350.972 765.779L290.283 713.865C285.603 729.658 225.451 763.342 195.959 778.209C211.753 749.547 255.673 710.209 275.659 694.122Z" fill="black"/>
<path d="M903.021 694.122C915.451 671.456 933.731 626.853 934.462 599.799C947.623 599.799 993.689 642.939 1011.97 694.122C1026.59 735.069 1084.36 778.941 1111.41 795.758C931.245 871.217 847.207 807.213 827.708 765.779L888.397 713.865C897.171 722.639 953.229 763.342 982.721 778.209C966.927 749.547 923.007 710.209 903.021 694.122Z" fill="black"/>
<path d="M453.338 740.187L437.983 768.704L477.468 748.231C514.758 737.263 521.095 765.535 517.683 778.209L492.091 805.995L517.683 790.64C550.44 776.016 551.318 803.801 545.468 818.425L533.769 833.78C563.748 817.694 568.623 839.142 561.555 849.866C551.025 869.169 505.984 887.157 484.779 893.738C465.037 898.125 449.682 884.963 453.338 871.802C429.94 874.142 425.309 848.647 426.284 838.167C390.602 836.997 392.893 806.726 397.037 792.833C368.374 795.173 360.477 758.467 362.671 748.231C364.864 737.994 380.219 729.22 387.531 724.101C394.843 718.983 418.241 706.553 418.241 706.553C451.145 694.122 460.65 727.757 453.338 740.187Z" fill="black"/>
<path d="M285.165 229.816C307.1 237.128 378.27 265.645 415.317 277.344C459.749 225.868 553.746 124.768 595.19 80.6533C660.704 136.809 822.834 333.645 895.709 425.044C731.922 270.032 549.612 266.863 478.93 284.656C314.558 316.243 261.279 476.715 255.186 553.003C203.125 553.588 133.077 582.007 104.56 596.143C116.259 551.687 227.157 334.62 285.165 229.816Z" fill="black"/>
<path d="M304.907 474.034C408.443 258.771 589.34 285.387 671.965 315.366C516.952 282.462 426.356 362.162 408.736 400.184C367.058 490.12 422.872 538.623 470.156 547.153C510.371 519.368 560.823 517.905 589.34 524.486C608.719 528.958 622 549.347 625.9 561.777C609.57 572.014 564.918 597.459 516.952 617.347C468.986 637.236 473.568 667.556 481.855 680.23C513.296 722.639 616.394 680.23 637.599 662.681C654.562 648.642 674.158 649.52 682.201 651.713L774.331 773.091C782.521 826.322 739.722 819.644 717.298 809.651C709.694 850.012 677.083 838.655 661.728 827.93C653.539 871.802 619.319 859.372 603.233 847.673C588.609 872.533 555.705 872.533 557.168 871.802C568.642 866.064 575.447 852.06 576.91 847.673C583.344 821.935 566.673 817.694 557.168 816.231C579.834 786.984 548.393 773.335 530.845 773.091C537.279 761.392 529.382 743.844 522.802 737.263C498.234 719.129 473.568 729.707 464.306 737.263C475.274 716.789 462.844 691.198 441.639 680.23C424.676 671.456 392.65 694.123 378.757 706.553C263.521 652.152 281.509 528.873 304.907 474.034Z" fill="white"/>
<path d="M505.984 474.034C602.501 516.443 698.775 477.202 700.481 456.485C700.481 449.905 681.323 431.627 665.384 423.582C637.598 409.556 604.538 401.902 589.34 402.377C617.856 398.721 646.373 402.134 651.491 403.84C791.88 450.636 741.565 474.034 700.481 495.239C659.397 516.443 547.737 522.804 478.93 495.239C426 474.034 435.79 433.087 438.714 421.388C511.834 280.268 706.33 332.914 780.181 370.205C1012.99 510.594 880.598 695.585 786.761 770.897C734.847 699.241 691.707 638.552 683.664 635.627C675.62 632.702 666.115 622.466 603.233 660.488C498.672 720.445 459.919 650.982 500.866 637.821C533.623 627.292 605.67 583.225 637.598 562.508C698.434 530.921 742.89 561.533 757.514 580.788C845.842 539.256 809.428 462.579 780.181 429.431C720.223 352.656 581.297 362.893 546.931 370.205C487.704 391.409 463.575 445.518 505.984 474.034Z" fill="black"/>
<path d="M661.729 438.937C585.1 451.806 554.975 419.926 577.642 404.571C538.889 404.571 517.113 428.398 517.684 433.818C522.07 475.496 629.8 462.335 661.729 438.937Z" fill="white"/>
</svg>
