<?xml version="1.0" encoding="UTF-8" standalone="no"?>
<svg
   width="1049"
   height="815"
   viewBox="0 0 1049 815"
   fill="none"
   version="1.1"
   id="svg7"
   sodipodi:docname="Logo color_small_noBG.svg"
   xmlns:inkscape="http://www.inkscape.org/namespaces/inkscape"
   xmlns:sodipodi="http://sodipodi.sourceforge.net/DTD/sodipodi-0.dtd"
   xmlns="http://www.w3.org/2000/svg"
   xmlns:svg="http://www.w3.org/2000/svg">
  <defs
     id="defs7" />
  <sodipodi:namedview
     id="namedview7"
     pagecolor="#505050"
     bordercolor="#eeeeee"
     borderopacity="1"
     inkscape:showpageshadow="0"
     inkscape:pageopacity="0"
     inkscape:pagecheckerboard="0"
     inkscape:deskcolor="#505050"
     showgrid="false" />
  <g
     inkscape:groupmode="layer"
     id="layer1"
     inkscape:label="Background">
    <rect
       style="fill:#ec1f27;fill-opacity:1;fill-rule:nonzero"
       id="rect7"
       width="1064.6125"
       height="822.01721"
       x="-7.01722"
       y="-1.00246" />
  </g>
  <g
     inkscape:groupmode="layer"
     id="layer2"
     inkscape:label="Foreground">
    <path
       d="m 212.659,614.122 c -10.237,-17.548 -30.71,-67.269 -31.441,-94.323 -13.162,0 -59.227,43.14 -77.506,94.323 C 89.0878,655.069 27.6677,698.941 0.613647,715.758 180.779,791.217 268.473,727.213 287.972,685.779 l -60.689,-51.914 c -4.68,15.793 -64.832,49.477 -94.324,64.344 15.794,-28.662 59.714,-68 79.7,-84.087 z"
       fill="#000000"
       id="path1" />
    <path
       d="m 840.021,614.122 c 12.43,-22.666 30.71,-67.269 31.441,-94.323 13.161,0 59.227,43.14 77.506,94.323 14.624,40.947 72.392,84.819 99.442,101.636 -180.165,75.459 -264.203,11.455 -283.702,-29.979 l 60.689,-51.914 c 8.774,8.774 64.832,49.477 94.324,64.344 -15.794,-28.662 -59.714,-68 -79.7,-84.087 z"
       fill="#000000"
       id="path2" />
    <path
       d="m 390.338,660.187 -15.355,28.517 39.485,-20.473 c 37.29,-10.968 43.627,17.304 40.215,29.978 l -25.592,27.786 25.592,-15.355 c 32.757,-14.624 33.635,13.161 27.785,27.785 l -11.699,15.355 c 29.979,-16.086 34.854,5.362 27.786,16.086 -10.53,19.303 -55.571,37.291 -76.776,43.872 -19.742,4.387 -35.097,-8.775 -31.441,-21.936 -23.398,2.34 -28.029,-23.155 -27.054,-33.635 -35.682,-1.17 -33.391,-31.441 -29.247,-45.334 -28.663,2.34 -36.56,-34.366 -34.366,-44.602 2.193,-10.237 17.548,-19.011 24.86,-24.13 7.312,-5.118 30.71,-17.548 30.71,-17.548 32.904,-12.431 42.409,21.204 35.097,33.634 z"
       fill="#000000"
       id="path3" />
    <path
       d="m 222.165,149.816 c 21.935,7.312 93.105,35.829 130.152,47.528 C 396.749,145.868 490.746,44.7685 532.19,0.653259 597.704,56.8087 759.834,253.645 832.709,345.044 668.922,190.032 486.612,186.863 415.93,204.656 251.558,236.243 198.279,396.715 192.186,473.003 140.125,473.588 70.0769,502.007 41.5604,516.143 53.2595,471.687 164.157,254.62 222.165,149.816 Z"
       fill="#000000"
       id="path4" />
    <path
       d="M 241.907,394.034 C 345.443,178.771 526.34,205.387 608.964,235.366 453.952,202.462 363.356,282.162 345.736,320.184 c -41.678,89.936 14.136,138.439 61.42,146.969 40.215,-27.785 90.667,-29.248 119.184,-22.667 19.379,4.472 32.66,24.861 36.559,37.291 -16.33,10.237 -60.981,35.682 -108.947,55.57 -47.966,19.889 -43.384,50.209 -35.097,62.883 31.441,42.409 134.539,0 155.743,-17.549 16.964,-14.039 36.56,-13.161 44.603,-10.968 l 92.13,121.378 c 8.19,53.231 -34.61,46.553 -57.033,36.56 -7.604,40.361 -40.215,29.004 -55.57,18.279 -8.19,43.872 -42.409,31.442 -58.496,19.743 -14.623,24.86 -47.527,24.86 -46.065,24.129 11.475,-5.738 18.28,-19.742 19.743,-24.129 6.434,-25.738 -10.237,-29.979 -19.743,-31.442 22.667,-29.247 -8.774,-42.896 -26.322,-43.14 6.434,-11.699 -1.463,-29.247 -8.044,-35.828 -24.568,-18.134 -49.233,-7.556 -58.495,0 10.968,-20.474 -1.462,-46.065 -22.667,-57.033 -16.963,-8.774 -48.99,13.893 -62.882,26.323 -115.236,-54.401 -97.249,-177.68 -73.85,-232.519 z"
       fill="#ffffff"
       id="path5" />
    <path
       d="m 442.984,394.034 c 96.517,42.409 192.791,3.168 194.497,-17.549 0,-6.58 -19.158,-24.858 -35.097,-32.903 -27.786,-14.026 -60.846,-21.68 -76.044,-21.205 28.516,-3.656 57.033,-0.243 62.151,1.463 140.389,46.796 90.074,70.194 48.99,91.399 -41.084,21.204 -152.744,27.565 -221.551,0 -52.93,-21.205 -43.14,-62.152 -40.216,-73.851 73.12,-141.12 267.616,-88.474 341.467,-51.183 232.811,140.389 100.417,325.38 6.58,400.692 -51.914,-71.656 -95.054,-132.345 -103.097,-135.27 -8.044,-2.925 -17.549,-13.161 -80.431,24.861 -104.561,59.957 -143.314,-9.506 -102.367,-22.667 32.757,-10.529 104.804,-54.596 136.732,-75.313 60.836,-31.587 105.292,-0.975 119.916,18.28 88.328,-41.532 51.914,-118.209 22.667,-151.357 -59.958,-76.775 -198.884,-66.538 -233.25,-59.226 -59.227,21.204 -83.356,75.313 -40.947,103.829 z"
       fill="#000000"
       id="path6" />
    <path
       d="m 598.729,358.937 c -76.629,12.869 -106.754,-19.011 -84.087,-34.366 -38.753,0 -60.529,23.827 -59.958,29.248 4.386,41.677 112.116,28.516 144.045,5.118 z"
       fill="#ffffff"
       id="path7" />
  </g>
</svg>
